<svg xmlns="http://www.w3.org/2000/svg" viewBox="0 0 24 24"><g fill='#000000'><path d="M15 21H9c-.55 0-1 .45-1 1s.45 1 1 1h1c0 .55.45 1 1 1h2c.55 0 1-.45 1-1h1c.55 0 1-.45 1-1s-.45-1-1-1zM16.5 18h-9c-.55 0-1 .45-1 1s.45 1 1 1h9c.55 0 1-.45 1-1s-.45-1-1-1zM8.5 7C7.77 7 7 7.77 7 8.5S7.77 10 8.5 10H10V8.5C10 7.77 9.23 7 8.5 7zM15.5 7c-.73 0-1.5.77-1.5 1.5V10h1.5c.73 0 1.5-.77 1.5-1.5S16.23 7 15.5 7zM17 14.72c1.69-.69 4-2.46 4-5.72 0-2.11-.65-9-9-9S3 6.89 3 9c0 3.26 2.31 5.03 4 5.72V15c0 .05.01.1.01.15-.3.16-.51.48-.51.85 0 .55.45 1 1 1h9c.55 0 1-.45 1-1 0-.37-.21-.69-.51-.86 0-.05.01-.1.01-.15v-.27zM15.5 11H14v4.5c0 .28-.22.5-.5.5s-.5-.22-.5-.5V11h-2v4.5c0 .28-.22.5-.5.5s-.5-.22-.5-.5V11H8.5C7.21 11 6 9.79 6 8.5S7.21 6 8.5 6 11 7.21 11 8.5V10h2V8.5C13 7.21 14.21 6 15.5 6S18 7.21 18 8.5 16.79 11 15.5 11z"></path></g></svg>