<svg xmlns="http://www.w3.org/2000/svg" viewBox="0 0 24 24"><g fill='#000000'><path d="M21 18l-8.66-8.66c.42-.86.66-1.82.66-2.84C13 2.91 10.09 0 6.5 0 5.43 0 4.43.26 3.54.72l3.87 3.87c.78.78.78 2.05 0 2.83s-2.05.78-2.83 0L.72 3.54C.26 4.43 0 5.43 0 6.5 0 10.09 2.91 13 6.5 13c1.02 0 1.98-.24 2.84-.66L18 21c0 1.66 1.34 3 3 3s3-1.34 3-3-1.34-3-3-3zm-9.5-5c-.68 0-1.24-.45-1.43-1.07.74-.49 1.37-1.12 1.86-1.86.62.19 1.07.75 1.07 1.43 0 .83-.67 1.5-1.5 1.5zM21 23c-1.1 0-2-.9-2-2s.9-2 2-2 2 .9 2 2-.9 2-2 2z"></path></g></svg>