<svg viewBox="0 0 64 64" xmlns="http://www.w3.org/2000/svg"><circle cx="33" cy="23" fill="#edebdc" r="23"/><g stroke="#4c241d" stroke-linecap="round" stroke-linejoin="round" stroke-width="2"><path d="m7 17v2" fill="none"/><path d="m7 23v2" fill="none"/><path d="m21.778 47h25.444a8.778 8.778 0 0 1 8.778 8.778v5.222a0 0 0 0 1 0 0h-43a0 0 0 0 1 0 0v-5.222a8.778 8.778 0 0 1 8.778-8.778z" fill="#9dc1e4"/><path d="m32 61h-4l6-12h4z" fill="#fff"/><path d="m59 39h-48v4.236a5.763 5.763 0 0 0 5.764 5.764l17.236 6 19.236-6a5.763 5.763 0 0 0 5.764-5.764z" fill="#9dc1e4"/><path d="m3 21h2" fill="none"/><path d="m9 21h2" fill="none"/><circle cx="55.5" cy="6.5" fill="none" r="2.5"/></g><circle cx="13.984" cy="6.603" fill="#4c241d" r="1.069"/><ellipse cx="35" cy="39" fill="#6b4f5b" rx="24" ry="6" stroke="#4c241d" stroke-linecap="round" stroke-linejoin="round" stroke-width="2"/><circle cx="5.984" cy="30.603" fill="#4c241d" r="1.069"/><path d="m48 13v-2.857a6.143 6.143 0 0 0 -6.143-6.143h-14.714a6.143 6.143 0 0 0 -6.143 6.143v2.857" fill="#9dc1e4" stroke="#4c241d" stroke-linecap="round" stroke-linejoin="round" stroke-width="2"/><path d="m20 17.81h29v14.19h-29z" fill="#ffe8dc" stroke="#4c241d" stroke-linecap="round" stroke-linejoin="round" stroke-width="2"/><path d="m41.972 13h6.028a4 4 0 0 1 4 4 4 4 0 0 1 -4 4h-27a4 4 0 0 1 -4-4 4 4 0 0 1 4-4h16" fill="#fff" stroke="#4c241d" stroke-linecap="round" stroke-linejoin="round" stroke-width="2"/><circle cx="39.5" cy="25.5" fill="#4c241d" r="1.136"/><circle cx="29.5" cy="25.5" fill="#4c241d" r="1.136"/><path d="m43.875 32a6.472 6.472 0 0 0 -5.219-2.2 5.2 5.2 0 0 0 -3.656 2.174 5.2 5.2 0 0 0 -3.656-2.174 6.472 6.472 0 0 0 -5.219 2.2h-6.125v4.5a14.5 14.5 0 0 0 29 0v-4.5z" fill="#fff" stroke="#4c241d" stroke-linecap="round" stroke-linejoin="round" stroke-width="2"/><path d="m33 36h4" fill="none" stroke="#4c241d" stroke-linecap="round" stroke-linejoin="round" stroke-width="2"/><path d="m32 10h5v5h-5z" fill="#bd53b5" stroke="#4c241d" stroke-linecap="round" stroke-linejoin="round" stroke-width="2" transform="matrix(.70710678 -.70710678 .70710678 .70710678 1.266 28.056)"/></svg>